<?xml version="1.0" encoding="UTF-8" standalone="no"?>
<!DOCTYPE svg PUBLIC "-//W3C//DTD SVG 1.1//EN"
 "http://www.w3.org/Graphics/SVG/1.1/DTD/svg11.dtd">
<!-- Generated by graphviz version 2.43.0 (0)
 -->
<!-- Title: structs Pages: 1 -->
<svg width="718pt" height="998pt"
 viewBox="0.00 0.00 718.00 998.00" xmlns="http://www.w3.org/2000/svg" xmlns:xlink="http://www.w3.org/1999/xlink">
<g id="graph0" class="graph" transform="scale(1 1) rotate(0) translate(4 994)">
<title>structs</title>
<polygon fill="white" stroke="transparent" points="-4,4 -4,-994 714,-994 714,4 -4,4"/>
<!-- contest -->
<g id="node1" class="node">
<title>contest</title>
<polygon fill="none" stroke="black" points="8.5,-750 8.5,-771 135.5,-771 135.5,-750 8.5,-750"/>
<text text-anchor="start" x="51.5" y="-757.8" font-family="Times,serif" font-weight="bold" font-size="14.00">contest</text>
<polygon fill="none" stroke="black" points="8.5,-729 8.5,-750 32.5,-750 32.5,-729 8.5,-729"/>
<text text-anchor="start" x="11.5" y="-735.8" font-family="Times,serif" font-size="14.00">🔑</text>
<polygon fill="none" stroke="black" points="32.5,-729 32.5,-750 135.5,-750 135.5,-729 32.5,-729"/>
<text text-anchor="start" x="78.5" y="-735.8" font-family="Times,serif" font-size="14.00">id</text>
<polygon fill="none" stroke="black" points="8.5,-708 8.5,-729 32.5,-729 32.5,-708 8.5,-708"/>
<text text-anchor="start" x="18.5" y="-714.8" font-family="Times,serif" font-size="14.00"> </text>
<polygon fill="none" stroke="black" points="32.5,-708 32.5,-729 135.5,-729 135.5,-708 32.5,-708"/>
<text text-anchor="start" x="62" y="-714.8" font-family="Times,serif" font-size="14.00">location</text>
<polygon fill="none" stroke="black" points="8.5,-687 8.5,-708 32.5,-708 32.5,-687 8.5,-687"/>
<text text-anchor="start" x="18.5" y="-693.8" font-family="Times,serif" font-size="14.00"> </text>
<polygon fill="none" stroke="black" points="32.5,-687 32.5,-708 135.5,-708 135.5,-687 32.5,-687"/>
<text text-anchor="start" x="59.5" y="-693.8" font-family="Times,serif" font-size="14.00">filename</text>
<polygon fill="none" stroke="black" points="8.5,-666 8.5,-687 32.5,-687 32.5,-666 8.5,-666"/>
<text text-anchor="start" x="18.5" y="-672.8" font-family="Times,serif" font-size="14.00"> </text>
<polygon fill="none" stroke="black" points="32.5,-666 32.5,-687 135.5,-687 135.5,-666 32.5,-666"/>
<text text-anchor="start" x="68.5" y="-672.8" font-family="Times,serif" font-size="14.00">name</text>
<polygon fill="none" stroke="black" points="8.5,-645 8.5,-666 32.5,-666 32.5,-645 8.5,-645"/>
<text text-anchor="start" x="18.5" y="-651.8" font-family="Times,serif" font-size="14.00"> </text>
<polygon fill="none" stroke="black" points="32.5,-645 32.5,-666 135.5,-666 135.5,-645 32.5,-645"/>
<text text-anchor="start" x="61" y="-651.8" font-family="Times,serif" font-size="14.00">duration</text>
<polygon fill="none" stroke="black" points="8.5,-624 8.5,-645 32.5,-645 32.5,-624 8.5,-624"/>
<text text-anchor="start" x="18.5" y="-630.8" font-family="Times,serif" font-size="14.00"> </text>
<polygon fill="none" stroke="black" points="32.5,-624 32.5,-645 135.5,-645 135.5,-624 32.5,-624"/>
<text text-anchor="start" x="67" y="-630.8" font-family="Times,serif" font-size="14.00">public</text>
<polygon fill="none" stroke="black" points="8.5,-603 8.5,-624 32.5,-624 32.5,-603 8.5,-603"/>
<text text-anchor="start" x="18.5" y="-609.8" font-family="Times,serif" font-size="14.00"> </text>
<polygon fill="none" stroke="black" points="32.5,-603 32.5,-624 135.5,-624 135.5,-603 32.5,-603"/>
<text text-anchor="start" x="57.5" y="-609.8" font-family="Times,serif" font-size="14.00">start_date</text>
<polygon fill="none" stroke="black" points="8.5,-582 8.5,-603 32.5,-603 32.5,-582 8.5,-582"/>
<text text-anchor="start" x="18.5" y="-588.8" font-family="Times,serif" font-size="14.00"> </text>
<polygon fill="none" stroke="black" points="32.5,-582 32.5,-603 135.5,-603 135.5,-582 32.5,-582"/>
<text text-anchor="start" x="59.5" y="-588.8" font-family="Times,serif" font-size="14.00">end_date</text>
<polygon fill="none" stroke="black" points="8.5,-561 8.5,-582 32.5,-582 32.5,-561 8.5,-561"/>
<text text-anchor="start" x="18.5" y="-567.8" font-family="Times,serif" font-size="14.00"> </text>
<polygon fill="none" stroke="black" points="32.5,-561 32.5,-582 135.5,-582 135.5,-561 32.5,-561"/>
<text text-anchor="start" x="60.5" y="-567.8" font-family="Times,serif" font-size="14.00">message</text>
<polygon fill="none" stroke="black" points="8.5,-540 8.5,-561 32.5,-561 32.5,-540 8.5,-540"/>
<text text-anchor="start" x="18.5" y="-546.8" font-family="Times,serif" font-size="14.00"> </text>
<polygon fill="none" stroke="black" points="32.5,-540 32.5,-561 135.5,-561 135.5,-540 32.5,-540"/>
<text text-anchor="start" x="54.5" y="-546.8" font-family="Times,serif" font-size="14.00">min_grade</text>
<polygon fill="none" stroke="black" points="8.5,-519 8.5,-540 32.5,-540 32.5,-519 8.5,-519"/>
<text text-anchor="start" x="18.5" y="-525.8" font-family="Times,serif" font-size="14.00"> </text>
<polygon fill="none" stroke="black" points="32.5,-519 32.5,-540 135.5,-540 135.5,-519 32.5,-519"/>
<text text-anchor="start" x="53.5" y="-525.8" font-family="Times,serif" font-size="14.00">max_grade</text>
<polygon fill="none" stroke="black" points="8.5,-498 8.5,-519 32.5,-519 32.5,-498 8.5,-498"/>
<text text-anchor="start" x="18.5" y="-504.8" font-family="Times,serif" font-size="14.00"> </text>
<polygon fill="none" stroke="black" points="32.5,-498 32.5,-519 135.5,-519 135.5,-498 32.5,-498"/>
<text text-anchor="start" x="36" y="-504.8" font-family="Times,serif" font-size="14.00">positionalnumber</text>
<polygon fill="none" stroke="black" points="8.5,-477 8.5,-498 32.5,-498 32.5,-477 8.5,-477"/>
<text text-anchor="start" x="18.5" y="-483.8" font-family="Times,serif" font-size="14.00"> </text>
<polygon fill="none" stroke="black" points="32.5,-477 32.5,-498 135.5,-498 135.5,-477 32.5,-477"/>
<text text-anchor="start" x="44.5" y="-483.8" font-family="Times,serif" font-size="14.00">requires_login</text>
<polygon fill="none" stroke="black" points="8.5,-456 8.5,-477 32.5,-477 32.5,-456 8.5,-456"/>
<text text-anchor="start" x="18.5" y="-462.8" font-family="Times,serif" font-size="14.00"> </text>
<polygon fill="none" stroke="black" points="32.5,-456 32.5,-477 135.5,-477 135.5,-456 32.5,-456"/>
<text text-anchor="start" x="35.5" y="-462.8" font-family="Times,serif" font-size="14.00">review_start_date</text>
<polygon fill="none" stroke="black" points="8.5,-435 8.5,-456 32.5,-456 32.5,-435 8.5,-435"/>
<text text-anchor="start" x="18.5" y="-441.8" font-family="Times,serif" font-size="14.00"> </text>
<polygon fill="none" stroke="black" points="32.5,-435 32.5,-456 135.5,-456 135.5,-435 32.5,-435"/>
<text text-anchor="start" x="37.5" y="-441.8" font-family="Times,serif" font-size="14.00">review_end_date</text>
<polygon fill="none" stroke="black" points="8.5,-414 8.5,-435 32.5,-435 32.5,-414 8.5,-414"/>
<text text-anchor="start" x="18.5" y="-420.8" font-family="Times,serif" font-size="14.00"> </text>
<polygon fill="none" stroke="black" points="32.5,-414 32.5,-435 135.5,-435 135.5,-414 32.5,-414"/>
<text text-anchor="start" x="68" y="-420.8" font-family="Times,serif" font-size="14.00">secret</text>
<polygon fill="none" stroke="black" points="8.5,-393 8.5,-414 32.5,-414 32.5,-393 8.5,-393"/>
<text text-anchor="start" x="18.5" y="-399.8" font-family="Times,serif" font-size="14.00"> </text>
<polygon fill="none" stroke="black" points="32.5,-393 32.5,-414 135.5,-414 135.5,-393 32.5,-393"/>
<text text-anchor="start" x="39.5" y="-399.8" font-family="Times,serif" font-size="14.00">requires_contest</text>
<polygon fill="none" stroke="black" points="8.5,-372 8.5,-393 32.5,-393 32.5,-372 8.5,-372"/>
<text text-anchor="start" x="18.5" y="-378.8" font-family="Times,serif" font-size="14.00"> </text>
<polygon fill="none" stroke="black" points="32.5,-372 32.5,-393 135.5,-393 135.5,-372 32.5,-372"/>
<text text-anchor="start" x="58.5" y="-378.8" font-family="Times,serif" font-size="14.00">protected</text>
<polygon fill="none" stroke="black" points="8.5,-351 8.5,-372 32.5,-372 32.5,-351 8.5,-351"/>
<text text-anchor="start" x="18.5" y="-357.8" font-family="Times,serif" font-size="14.00"> </text>
<polygon fill="none" stroke="black" points="32.5,-351 32.5,-372 135.5,-372 135.5,-351 32.5,-351"/>
<text text-anchor="start" x="67" y="-357.8" font-family="Times,serif" font-size="14.00">image</text>
<polygon fill="none" stroke="black" points="8.5,-330 8.5,-351 32.5,-351 32.5,-330 8.5,-330"/>
<text text-anchor="start" x="18.5" y="-336.8" font-family="Times,serif" font-size="14.00"> </text>
<polygon fill="none" stroke="black" points="32.5,-330 32.5,-351 135.5,-351 135.5,-330 32.5,-330"/>
<text text-anchor="start" x="59.5" y="-336.8" font-family="Times,serif" font-size="14.00">language</text>
<polygon fill="none" stroke="black" points="8.5,-309 8.5,-330 32.5,-330 32.5,-309 8.5,-309"/>
<text text-anchor="start" x="18.5" y="-315.8" font-family="Times,serif" font-size="14.00"> </text>
<polygon fill="none" stroke="black" points="32.5,-309 32.5,-330 135.5,-330 135.5,-309 32.5,-309"/>
<text text-anchor="start" x="60.5" y="-315.8" font-family="Times,serif" font-size="14.00">category</text>
<polygon fill="none" stroke="black" points="8.5,-288 8.5,-309 32.5,-309 32.5,-288 8.5,-288"/>
<text text-anchor="start" x="18.5" y="-294.8" font-family="Times,serif" font-size="14.00"> </text>
<polygon fill="none" stroke="black" points="32.5,-288 32.5,-309 135.5,-309 135.5,-288 32.5,-288"/>
<text text-anchor="start" x="40.5" y="-294.8" font-family="Times,serif" font-size="14.00">standalone_task</text>
</g>
<!-- contest_tags -->
<g id="node2" class="node">
<title>contest_tags</title>
<polygon fill="none" stroke="black" points="231,-751 231,-772 308,-772 308,-751 231,-751"/>
<text text-anchor="start" x="234" y="-758.8" font-family="Times,serif" font-weight="bold" font-size="14.00">contest_tags</text>
<polygon fill="none" stroke="black" points="231,-730 231,-751 267,-751 267,-730 231,-730"/>
<text text-anchor="start" x="240" y="-736.8" font-family="Times,serif" font-size="14.00">🔑</text>
<polygon fill="none" stroke="black" points="267,-730 267,-751 308,-751 308,-730 267,-730"/>
<text text-anchor="start" x="282" y="-736.8" font-family="Times,serif" font-size="14.00">id</text>
<polygon fill="none" stroke="black" points="231,-709 231,-730 267,-730 267,-709 231,-709"/>
<text text-anchor="start" x="247" y="-715.8" font-family="Times,serif" font-size="14.00"> </text>
<polygon fill="none" stroke="black" points="267,-709 267,-730 308,-730 308,-709 267,-709"/>
<text text-anchor="start" x="276.5" y="-715.8" font-family="Times,serif" font-size="14.00">tags</text>
</g>
<!-- contest_tags&#45;&gt;contest -->
<g id="edge11" class="edge">
<title>contest_tags:w&#45;&gt;contest:e</title>
<path fill="none" stroke="black" d="M230,-740C192.02,-740 180.07,-740 146.56,-740"/>
<polygon fill="black" stroke="black" points="146.5,-736.5 136.5,-740 146.5,-743.5 146.5,-736.5"/>
</g>
<!-- grade -->
<g id="node3" class="node">
<title>grade</title>
<polygon fill="none" stroke="black" points="416,-797 416,-818 500,-818 500,-797 416,-797"/>
<text text-anchor="start" x="441" y="-804.8" font-family="Times,serif" font-weight="bold" font-size="14.00">grade</text>
<polygon fill="none" stroke="black" points="416,-776 416,-797 440,-797 440,-776 416,-776"/>
<text text-anchor="start" x="419" y="-782.8" font-family="Times,serif" font-size="14.00">🔑</text>
<polygon fill="none" stroke="black" points="440,-776 440,-797 500,-797 500,-776 440,-776"/>
<text text-anchor="start" x="443" y="-782.8" font-family="Times,serif" font-size="14.00">taskgroup</text>
<polygon fill="none" stroke="black" points="416,-755 416,-776 440,-776 440,-755 416,-755"/>
<text text-anchor="start" x="419" y="-761.8" font-family="Times,serif" font-size="14.00">🔑</text>
<polygon fill="none" stroke="black" points="440,-755 440,-776 500,-776 500,-755 440,-755"/>
<text text-anchor="start" x="450" y="-761.8" font-family="Times,serif" font-size="14.00">session</text>
<polygon fill="none" stroke="black" points="416,-734 416,-755 440,-755 440,-734 416,-734"/>
<text text-anchor="start" x="426" y="-740.8" font-family="Times,serif" font-size="14.00"> </text>
<polygon fill="none" stroke="black" points="440,-734 440,-755 500,-755 500,-734 440,-734"/>
<text text-anchor="start" x="454.5" y="-740.8" font-family="Times,serif" font-size="14.00">grade</text>
<polygon fill="none" stroke="black" points="416,-713 416,-734 440,-734 440,-713 416,-713"/>
<text text-anchor="start" x="426" y="-719.8" font-family="Times,serif" font-size="14.00"> </text>
<polygon fill="none" stroke="black" points="440,-713 440,-734 500,-734 500,-713 440,-713"/>
<text text-anchor="start" x="445" y="-719.8" font-family="Times,serif" font-size="14.00">validated</text>
</g>
<!-- session -->
<g id="node6" class="node">
<title>session</title>
<polygon fill="none" stroke="black" points="187,-624 187,-645 351,-645 351,-624 187,-624"/>
<text text-anchor="start" x="249" y="-631.8" font-family="Times,serif" font-weight="bold" font-size="14.00">session</text>
<polygon fill="none" stroke="black" points="187,-603 187,-624 211,-624 211,-603 187,-603"/>
<text text-anchor="start" x="190" y="-609.8" font-family="Times,serif" font-size="14.00">🔑</text>
<polygon fill="none" stroke="black" points="211,-603 211,-624 351,-624 351,-603 211,-603"/>
<text text-anchor="start" x="275.5" y="-609.8" font-family="Times,serif" font-size="14.00">id</text>
<polygon fill="none" stroke="black" points="187,-582 187,-603 211,-603 211,-582 187,-582"/>
<text text-anchor="start" x="197" y="-588.8" font-family="Times,serif" font-size="14.00"> </text>
<polygon fill="none" stroke="black" points="211,-582 211,-603 351,-603 351,-582 211,-582"/>
<text text-anchor="start" x="243" y="-588.8" font-family="Times,serif" font-size="14.00">session_token</text>
<polygon fill="none" stroke="black" points="187,-561 187,-582 211,-582 211,-561 187,-561"/>
<text text-anchor="start" x="197" y="-567.8" font-family="Times,serif" font-size="14.00"> </text>
<polygon fill="none" stroke="black" points="211,-561 211,-582 351,-582 351,-561 211,-561"/>
<text text-anchor="start" x="252" y="-567.8" font-family="Times,serif" font-size="14.00">csrf_token</text>
<polygon fill="none" stroke="black" points="187,-540 187,-561 211,-561 211,-540 187,-540"/>
<text text-anchor="start" x="197" y="-546.8" font-family="Times,serif" font-size="14.00"> </text>
<polygon fill="none" stroke="black" points="211,-540 211,-561 351,-561 351,-540 211,-540"/>
<text text-anchor="start" x="254" y="-546.8" font-family="Times,serif" font-size="14.00">last_login</text>
<polygon fill="none" stroke="black" points="187,-519 187,-540 211,-540 211,-519 187,-519"/>
<text text-anchor="start" x="197" y="-525.8" font-family="Times,serif" font-size="14.00"> </text>
<polygon fill="none" stroke="black" points="211,-519 211,-540 351,-540 351,-519 211,-519"/>
<text text-anchor="start" x="247.5" y="-525.8" font-family="Times,serif" font-size="14.00">last_activity</text>
<polygon fill="none" stroke="black" points="187,-498 187,-519 211,-519 211,-498 187,-498"/>
<text text-anchor="start" x="197" y="-504.8" font-family="Times,serif" font-size="14.00"> </text>
<polygon fill="none" stroke="black" points="211,-498 211,-519 351,-519 351,-498 211,-498"/>
<text text-anchor="start" x="234.5" y="-504.8" font-family="Times,serif" font-size="14.00">permanent_login</text>
<polygon fill="none" stroke="black" points="187,-477 187,-498 211,-498 211,-477 187,-477"/>
<text text-anchor="start" x="197" y="-483.8" font-family="Times,serif" font-size="14.00"> </text>
<polygon fill="none" stroke="black" points="211,-477 211,-498 351,-498 351,-477 211,-477"/>
<text text-anchor="start" x="254.5" y="-483.8" font-family="Times,serif" font-size="14.00">username</text>
<polygon fill="none" stroke="black" points="187,-456 187,-477 211,-477 211,-456 187,-456"/>
<text text-anchor="start" x="197" y="-462.8" font-family="Times,serif" font-size="14.00"> </text>
<polygon fill="none" stroke="black" points="211,-456 211,-477 351,-477 351,-456 211,-456"/>
<text text-anchor="start" x="255" y="-462.8" font-family="Times,serif" font-size="14.00">password</text>
<polygon fill="none" stroke="black" points="187,-435 187,-456 211,-456 211,-435 187,-435"/>
<text text-anchor="start" x="197" y="-441.8" font-family="Times,serif" font-size="14.00"> </text>
<polygon fill="none" stroke="black" points="211,-435 211,-456 351,-456 351,-435 211,-435"/>
<text text-anchor="start" x="271.5" y="-441.8" font-family="Times,serif" font-size="14.00">salt</text>
<polygon fill="none" stroke="black" points="187,-414 187,-435 211,-435 211,-414 187,-414"/>
<text text-anchor="start" x="197" y="-420.8" font-family="Times,serif" font-size="14.00"> </text>
<polygon fill="none" stroke="black" points="211,-414 211,-435 351,-435 351,-414 211,-414"/>
<text text-anchor="start" x="254" y="-420.8" font-family="Times,serif" font-size="14.00">logincode</text>
<polygon fill="none" stroke="black" points="187,-393 187,-414 211,-414 211,-393 187,-393"/>
<text text-anchor="start" x="197" y="-399.8" font-family="Times,serif" font-size="14.00"> </text>
<polygon fill="none" stroke="black" points="211,-393 211,-414 351,-414 351,-393 211,-393"/>
<text text-anchor="start" x="265.5" y="-399.8" font-family="Times,serif" font-size="14.00">email</text>
<polygon fill="none" stroke="black" points="187,-372 187,-393 211,-393 211,-372 187,-372"/>
<text text-anchor="start" x="197" y="-378.8" font-family="Times,serif" font-size="14.00"> </text>
<polygon fill="none" stroke="black" points="211,-372 211,-393 351,-393 351,-372 211,-372"/>
<text text-anchor="start" x="227" y="-378.8" font-family="Times,serif" font-size="14.00">email_unconfirmed</text>
<polygon fill="none" stroke="black" points="187,-351 187,-372 211,-372 211,-351 187,-351"/>
<text text-anchor="start" x="197" y="-357.8" font-family="Times,serif" font-size="14.00"> </text>
<polygon fill="none" stroke="black" points="211,-351 211,-372 351,-372 351,-351 211,-351"/>
<text text-anchor="start" x="214" y="-357.8" font-family="Times,serif" font-size="14.00">email_confirmationcode</text>
<polygon fill="none" stroke="black" points="187,-330 187,-351 211,-351 211,-330 187,-330"/>
<text text-anchor="start" x="197" y="-336.8" font-family="Times,serif" font-size="14.00"> </text>
<polygon fill="none" stroke="black" points="211,-330 211,-351 351,-351 351,-330 211,-330"/>
<text text-anchor="start" x="255" y="-336.8" font-family="Times,serif" font-size="14.00">firstname</text>
<polygon fill="none" stroke="black" points="187,-309 187,-330 211,-330 211,-309 187,-309"/>
<text text-anchor="start" x="197" y="-315.8" font-family="Times,serif" font-size="14.00"> </text>
<polygon fill="none" stroke="black" points="211,-309 211,-330 351,-330 351,-309 211,-309"/>
<text text-anchor="start" x="256.5" y="-315.8" font-family="Times,serif" font-size="14.00">lastname</text>
<polygon fill="none" stroke="black" points="187,-288 187,-309 211,-309 211,-288 187,-288"/>
<text text-anchor="start" x="197" y="-294.8" font-family="Times,serif" font-size="14.00"> </text>
<polygon fill="none" stroke="black" points="211,-288 211,-309 351,-309 351,-288 211,-288"/>
<text text-anchor="start" x="266" y="-294.8" font-family="Times,serif" font-size="14.00">street</text>
<polygon fill="none" stroke="black" points="187,-267 187,-288 211,-288 211,-267 187,-267"/>
<text text-anchor="start" x="197" y="-273.8" font-family="Times,serif" font-size="14.00"> </text>
<polygon fill="none" stroke="black" points="211,-267 211,-288 351,-288 351,-267 211,-267"/>
<text text-anchor="start" x="272.5" y="-273.8" font-family="Times,serif" font-size="14.00">zip</text>
<polygon fill="none" stroke="black" points="187,-246 187,-267 211,-267 211,-246 187,-246"/>
<text text-anchor="start" x="197" y="-252.8" font-family="Times,serif" font-size="14.00"> </text>
<polygon fill="none" stroke="black" points="211,-246 211,-267 351,-267 351,-246 211,-246"/>
<text text-anchor="start" x="270.5" y="-252.8" font-family="Times,serif" font-size="14.00">city</text>
<polygon fill="none" stroke="black" points="187,-225 187,-246 211,-246 211,-225 187,-225"/>
<text text-anchor="start" x="197" y="-231.8" font-family="Times,serif" font-size="14.00"> </text>
<polygon fill="none" stroke="black" points="211,-225 211,-246 351,-246 351,-225 211,-225"/>
<text text-anchor="start" x="264" y="-231.8" font-family="Times,serif" font-size="14.00">nation</text>
<polygon fill="none" stroke="black" points="187,-204 187,-225 211,-225 211,-204 187,-204"/>
<text text-anchor="start" x="197" y="-210.8" font-family="Times,serif" font-size="14.00"> </text>
<polygon fill="none" stroke="black" points="211,-204 211,-225 351,-225 351,-204 211,-204"/>
<text text-anchor="start" x="265.5" y="-210.8" font-family="Times,serif" font-size="14.00">grade</text>
<polygon fill="none" stroke="black" points="187,-183 187,-204 211,-204 211,-183 187,-183"/>
<text text-anchor="start" x="197" y="-189.8" font-family="Times,serif" font-size="14.00"> </text>
<polygon fill="none" stroke="black" points="211,-183 211,-204 351,-204 351,-183 211,-183"/>
<text text-anchor="start" x="253.5" y="-189.8" font-family="Times,serif" font-size="14.00">is_teacher</text>
<polygon fill="none" stroke="black" points="187,-162 187,-183 211,-183 211,-162 187,-162"/>
<text text-anchor="start" x="197" y="-168.8" font-family="Times,serif" font-size="14.00"> </text>
<polygon fill="none" stroke="black" points="211,-162 211,-183 351,-183 351,-162 211,-162"/>
<text text-anchor="start" x="246" y="-168.8" font-family="Times,serif" font-size="14.00">managed_by</text>
<polygon fill="none" stroke="black" points="187,-141 187,-162 211,-162 211,-141 187,-141"/>
<text text-anchor="start" x="197" y="-147.8" font-family="Times,serif" font-size="14.00"> </text>
<polygon fill="none" stroke="black" points="211,-141 211,-162 351,-162 351,-141 211,-141"/>
<text text-anchor="start" x="234" y="-147.8" font-family="Times,serif" font-size="14.00">oauth_foreign_id</text>
<polygon fill="none" stroke="black" points="187,-120 187,-141 211,-141 211,-120 187,-120"/>
<text text-anchor="start" x="197" y="-126.8" font-family="Times,serif" font-size="14.00"> </text>
<polygon fill="none" stroke="black" points="211,-120 211,-141 351,-141 351,-120 211,-120"/>
<text text-anchor="start" x="239.5" y="-126.8" font-family="Times,serif" font-size="14.00">oauth_provider</text>
<polygon fill="none" stroke="black" points="187,-99 187,-120 211,-120 211,-99 187,-99"/>
<text text-anchor="start" x="197" y="-105.8" font-family="Times,serif" font-size="14.00"> </text>
<polygon fill="none" stroke="black" points="211,-99 211,-120 351,-120 351,-99 211,-99"/>
<text text-anchor="start" x="237" y="-105.8" font-family="Times,serif" font-size="14.00">account_created</text>
<polygon fill="none" stroke="black" points="187,-78 187,-99 211,-99 211,-78 187,-78"/>
<text text-anchor="start" x="197" y="-84.8" font-family="Times,serif" font-size="14.00"> </text>
<polygon fill="none" stroke="black" points="211,-78 211,-99 351,-99 351,-78 211,-78"/>
<text text-anchor="start" x="255.5" y="-84.8" font-family="Times,serif" font-size="14.00">is_admin</text>
<polygon fill="none" stroke="black" points="187,-57 187,-78 211,-78 211,-57 187,-57"/>
<text text-anchor="start" x="197" y="-63.8" font-family="Times,serif" font-size="14.00"> </text>
<polygon fill="none" stroke="black" points="211,-57 211,-78 351,-78 351,-57 211,-57"/>
<text text-anchor="start" x="271.5" y="-63.8" font-family="Times,serif" font-size="14.00">sex</text>
</g>
<!-- grade&#45;&gt;session -->
<g id="edge5" class="edge">
<title>grade:w&#45;&gt;session:e</title>
<path fill="none" stroke="black" d="M415,-765C346.12,-765 416.46,-629.51 362.26,-615.22"/>
<polygon fill="black" stroke="black" points="362.34,-611.7 352,-614 361.52,-618.65 362.34,-611.7"/>
</g>
<!-- taskgroup -->
<g id="node10" class="node">
<title>taskgroup</title>
<polygon fill="none" stroke="black" points="206,-904 206,-925 332,-925 332,-904 206,-904"/>
<text text-anchor="start" x="239.5" y="-911.8" font-family="Times,serif" font-weight="bold" font-size="14.00">taskgroup</text>
<polygon fill="none" stroke="black" points="206,-883 206,-904 230,-904 230,-883 206,-883"/>
<text text-anchor="start" x="209" y="-889.8" font-family="Times,serif" font-size="14.00">🔑</text>
<polygon fill="none" stroke="black" points="230,-883 230,-904 332,-904 332,-883 230,-883"/>
<text text-anchor="start" x="275.5" y="-889.8" font-family="Times,serif" font-size="14.00">id</text>
<polygon fill="none" stroke="black" points="206,-862 206,-883 230,-883 230,-862 206,-862"/>
<text text-anchor="start" x="216" y="-868.8" font-family="Times,serif" font-size="14.00"> </text>
<polygon fill="none" stroke="black" points="230,-862 230,-883 332,-883 332,-862 230,-862"/>
<text text-anchor="start" x="261.5" y="-868.8" font-family="Times,serif" font-size="14.00">contest</text>
<polygon fill="none" stroke="black" points="206,-841 206,-862 230,-862 230,-841 206,-841"/>
<text text-anchor="start" x="216" y="-847.8" font-family="Times,serif" font-size="14.00"> </text>
<polygon fill="none" stroke="black" points="230,-841 230,-862 332,-862 332,-841 230,-841"/>
<text text-anchor="start" x="265.5" y="-847.8" font-family="Times,serif" font-size="14.00">name</text>
<polygon fill="none" stroke="black" points="206,-820 206,-841 230,-841 230,-820 206,-820"/>
<text text-anchor="start" x="216" y="-826.8" font-family="Times,serif" font-size="14.00"> </text>
<polygon fill="none" stroke="black" points="230,-820 230,-841 332,-841 332,-820 230,-820"/>
<text text-anchor="start" x="264.5" y="-826.8" font-family="Times,serif" font-size="14.00">active</text>
<polygon fill="none" stroke="black" points="206,-799 206,-820 230,-820 230,-799 206,-799"/>
<text text-anchor="start" x="216" y="-805.8" font-family="Times,serif" font-size="14.00"> </text>
<polygon fill="none" stroke="black" points="230,-799 230,-820 332,-820 332,-799 230,-799"/>
<text text-anchor="start" x="233" y="-805.8" font-family="Times,serif" font-size="14.00">positionalnumber</text>
</g>
<!-- grade&#45;&gt;taskgroup -->
<g id="edge6" class="edge">
<title>grade:w&#45;&gt;taskgroup:e</title>
<path fill="none" stroke="black" d="M415,-787C358.83,-787 388.57,-881.04 343.14,-892.8"/>
<polygon fill="black" stroke="black" points="342.52,-889.35 333,-894 343.34,-896.3 342.52,-889.35"/>
</g>
<!-- migrations -->
<g id="node4" class="node">
<title>migrations</title>
<polygon fill="none" stroke="black" points="598.5,-855 598.5,-876 668.5,-876 668.5,-855 598.5,-855"/>
<text text-anchor="start" x="601.5" y="-862.8" font-family="Times,serif" font-weight="bold" font-size="14.00">migrations</text>
<polygon fill="none" stroke="black" points="598.5,-834 598.5,-855 626.5,-855 626.5,-834 598.5,-834"/>
<text text-anchor="start" x="603.5" y="-840.8" font-family="Times,serif" font-size="14.00">🔑</text>
<polygon fill="none" stroke="black" points="626.5,-834 626.5,-855 668.5,-855 668.5,-834 626.5,-834"/>
<text text-anchor="start" x="632" y="-840.8" font-family="Times,serif" font-size="14.00">name</text>
</g>
<!-- participation -->
<g id="node5" class="node">
<title>participation</title>
<polygon fill="none" stroke="black" points="414,-666 414,-687 502,-687 502,-666 414,-666"/>
<text text-anchor="start" x="420" y="-673.8" font-family="Times,serif" font-weight="bold" font-size="14.00">participation</text>
<polygon fill="none" stroke="black" points="414,-645 414,-666 438,-666 438,-645 414,-645"/>
<text text-anchor="start" x="417" y="-651.8" font-family="Times,serif" font-size="14.00">🔑</text>
<polygon fill="none" stroke="black" points="438,-645 438,-666 502,-666 502,-645 438,-645"/>
<text text-anchor="start" x="450.5" y="-651.8" font-family="Times,serif" font-size="14.00">contest</text>
<polygon fill="none" stroke="black" points="414,-624 414,-645 438,-645 438,-624 414,-624"/>
<text text-anchor="start" x="417" y="-630.8" font-family="Times,serif" font-size="14.00">🔑</text>
<polygon fill="none" stroke="black" points="438,-624 438,-645 502,-645 502,-624 438,-624"/>
<text text-anchor="start" x="450" y="-630.8" font-family="Times,serif" font-size="14.00">session</text>
<polygon fill="none" stroke="black" points="414,-603 414,-624 438,-624 438,-603 414,-603"/>
<text text-anchor="start" x="424" y="-609.8" font-family="Times,serif" font-size="14.00"> </text>
<polygon fill="none" stroke="black" points="438,-603 438,-624 502,-624 502,-603 438,-603"/>
<text text-anchor="start" x="443.5" y="-609.8" font-family="Times,serif" font-size="14.00">start_date</text>
<polygon fill="none" stroke="black" points="414,-582 414,-603 438,-603 438,-582 414,-582"/>
<text text-anchor="start" x="424" y="-588.8" font-family="Times,serif" font-size="14.00"> </text>
<polygon fill="none" stroke="black" points="438,-582 438,-603 502,-603 502,-582 438,-582"/>
<text text-anchor="start" x="441" y="-588.8" font-family="Times,serif" font-size="14.00">annotation</text>
</g>
<!-- participation&#45;&gt;contest -->
<g id="edge12" class="edge">
<title>participation:w&#45;&gt;contest:e</title>
<path fill="none" stroke="black" d="M413,-656C360.21,-656 225.77,-672.51 179,-697 158.73,-707.61 161.65,-731.33 146.37,-738.14"/>
<polygon fill="black" stroke="black" points="145.68,-734.71 136.5,-740 146.98,-741.59 145.68,-734.71"/>
</g>
<!-- participation&#45;&gt;session -->
<g id="edge7" class="edge">
<title>participation:w&#45;&gt;session:e</title>
<path fill="none" stroke="black" d="M413,-634C388.26,-634 382.01,-618.96 362.18,-614.96"/>
<polygon fill="black" stroke="black" points="362.29,-611.46 352,-614 361.63,-618.43 362.29,-611.46"/>
</g>
<!-- usergroup -->
<g id="node11" class="node">
<title>usergroup</title>
<polygon fill="none" stroke="black" points="17.5,-109 17.5,-130 125.5,-130 125.5,-109 17.5,-109"/>
<text text-anchor="start" x="41.5" y="-116.8" font-family="Times,serif" font-weight="bold" font-size="14.00">usergroup</text>
<polygon fill="none" stroke="black" points="17.5,-88 17.5,-109 41.5,-109 41.5,-88 17.5,-88"/>
<text text-anchor="start" x="20.5" y="-94.8" font-family="Times,serif" font-size="14.00">🔑</text>
<polygon fill="none" stroke="black" points="41.5,-88 41.5,-109 125.5,-109 125.5,-88 41.5,-88"/>
<text text-anchor="start" x="78" y="-94.8" font-family="Times,serif" font-size="14.00">id</text>
<polygon fill="none" stroke="black" points="17.5,-67 17.5,-88 41.5,-88 41.5,-67 17.5,-67"/>
<text text-anchor="start" x="27.5" y="-73.8" font-family="Times,serif" font-size="14.00"> </text>
<polygon fill="none" stroke="black" points="41.5,-67 41.5,-88 125.5,-88 125.5,-67 41.5,-67"/>
<text text-anchor="start" x="68" y="-73.8" font-family="Times,serif" font-size="14.00">name</text>
<polygon fill="none" stroke="black" points="17.5,-46 17.5,-67 41.5,-67 41.5,-46 17.5,-46"/>
<text text-anchor="start" x="27.5" y="-52.8" font-family="Times,serif" font-size="14.00"> </text>
<polygon fill="none" stroke="black" points="41.5,-46 41.5,-67 125.5,-67 125.5,-46 41.5,-46"/>
<text text-anchor="start" x="54.5" y="-52.8" font-family="Times,serif" font-size="14.00">groupcode</text>
<polygon fill="none" stroke="black" points="17.5,-25 17.5,-46 41.5,-46 41.5,-25 17.5,-25"/>
<text text-anchor="start" x="27.5" y="-31.8" font-family="Times,serif" font-size="14.00"> </text>
<polygon fill="none" stroke="black" points="41.5,-25 41.5,-46 125.5,-46 125.5,-25 41.5,-25"/>
<text text-anchor="start" x="75" y="-31.8" font-family="Times,serif" font-size="14.00">tag</text>
<polygon fill="none" stroke="black" points="17.5,-4 17.5,-25 41.5,-25 41.5,-4 17.5,-4"/>
<text text-anchor="start" x="27.5" y="-10.8" font-family="Times,serif" font-size="14.00"> </text>
<polygon fill="none" stroke="black" points="41.5,-4 41.5,-25 125.5,-25 125.5,-4 41.5,-4"/>
<text text-anchor="start" x="44.5" y="-10.8" font-family="Times,serif" font-size="14.00">group_created</text>
</g>
<!-- session&#45;&gt;usergroup -->
<g id="edge8" class="edge">
<title>session:w&#45;&gt;usergroup:e</title>
<path fill="none" stroke="black" d="M186,-172C148.07,-172 164.4,-112.05 136.64,-100.8"/>
<polygon fill="black" stroke="black" points="136.96,-97.31 126.5,-99 135.73,-104.2 136.96,-97.31"/>
</g>
<!-- string_cache -->
<g id="node7" class="node">
<title>string_cache</title>
<polygon fill="none" stroke="black" points="594.5,-965 594.5,-986 673.5,-986 673.5,-965 594.5,-965"/>
<text text-anchor="start" x="597.5" y="-972.8" font-family="Times,serif" font-weight="bold" font-size="14.00">string_cache</text>
<polygon fill="none" stroke="black" points="594.5,-944 594.5,-965 627.5,-965 627.5,-944 594.5,-944"/>
<text text-anchor="start" x="602" y="-950.8" font-family="Times,serif" font-size="14.00">🔑</text>
<polygon fill="none" stroke="black" points="627.5,-944 627.5,-965 673.5,-965 673.5,-944 627.5,-944"/>
<text text-anchor="start" x="640.5" y="-950.8" font-family="Times,serif" font-size="14.00">key</text>
<polygon fill="none" stroke="black" points="594.5,-923 594.5,-944 627.5,-944 627.5,-923 594.5,-923"/>
<text text-anchor="start" x="609" y="-929.8" font-family="Times,serif" font-size="14.00"> </text>
<polygon fill="none" stroke="black" points="627.5,-923 627.5,-944 673.5,-944 673.5,-923 627.5,-923"/>
<text text-anchor="start" x="635.5" y="-929.8" font-family="Times,serif" font-size="14.00">value</text>
<polygon fill="none" stroke="black" points="594.5,-902 594.5,-923 627.5,-923 627.5,-902 594.5,-902"/>
<text text-anchor="start" x="609" y="-908.8" font-family="Times,serif" font-size="14.00"> </text>
<polygon fill="none" stroke="black" points="627.5,-902 627.5,-923 673.5,-923 673.5,-902 627.5,-902"/>
<text text-anchor="start" x="639" y="-908.8" font-family="Times,serif" font-size="14.00">date</text>
</g>
<!-- submission -->
<g id="node8" class="node">
<title>submission</title>
<polygon fill="none" stroke="black" points="565.5,-786 565.5,-807 702.5,-807 702.5,-786 565.5,-786"/>
<text text-anchor="start" x="601.5" y="-793.8" font-family="Times,serif" font-weight="bold" font-size="14.00">submission</text>
<polygon fill="none" stroke="black" points="565.5,-765 565.5,-786 589.5,-786 589.5,-765 565.5,-765"/>
<text text-anchor="start" x="568.5" y="-771.8" font-family="Times,serif" font-size="14.00">🔑</text>
<polygon fill="none" stroke="black" points="589.5,-765 589.5,-786 702.5,-786 702.5,-765 589.5,-765"/>
<text text-anchor="start" x="640.5" y="-771.8" font-family="Times,serif" font-size="14.00">id</text>
<polygon fill="none" stroke="black" points="565.5,-744 565.5,-765 589.5,-765 589.5,-744 565.5,-744"/>
<text text-anchor="start" x="575.5" y="-750.8" font-family="Times,serif" font-size="14.00"> </text>
<polygon fill="none" stroke="black" points="589.5,-744 589.5,-765 702.5,-765 702.5,-744 589.5,-744"/>
<text text-anchor="start" x="635" y="-750.8" font-family="Times,serif" font-size="14.00">task</text>
<polygon fill="none" stroke="black" points="565.5,-723 565.5,-744 589.5,-744 589.5,-723 565.5,-723"/>
<text text-anchor="start" x="575.5" y="-729.8" font-family="Times,serif" font-size="14.00"> </text>
<polygon fill="none" stroke="black" points="589.5,-723 589.5,-744 702.5,-744 702.5,-723 589.5,-723"/>
<text text-anchor="start" x="626" y="-729.8" font-family="Times,serif" font-size="14.00">session</text>
<polygon fill="none" stroke="black" points="565.5,-702 565.5,-723 589.5,-723 589.5,-702 565.5,-702"/>
<text text-anchor="start" x="575.5" y="-708.8" font-family="Times,serif" font-size="14.00"> </text>
<polygon fill="none" stroke="black" points="589.5,-702 589.5,-723 702.5,-723 702.5,-702 589.5,-702"/>
<text text-anchor="start" x="630.5" y="-708.8" font-family="Times,serif" font-size="14.00">grade</text>
<polygon fill="none" stroke="black" points="565.5,-681 565.5,-702 589.5,-702 589.5,-681 565.5,-681"/>
<text text-anchor="start" x="575.5" y="-687.8" font-family="Times,serif" font-size="14.00"> </text>
<polygon fill="none" stroke="black" points="589.5,-681 589.5,-702 702.5,-702 702.5,-681 589.5,-681"/>
<text text-anchor="start" x="621" y="-687.8" font-family="Times,serif" font-size="14.00">validated</text>
<polygon fill="none" stroke="black" points="565.5,-660 565.5,-681 589.5,-681 589.5,-660 565.5,-660"/>
<text text-anchor="start" x="575.5" y="-666.8" font-family="Times,serif" font-size="14.00"> </text>
<polygon fill="none" stroke="black" points="589.5,-660 589.5,-681 702.5,-681 702.5,-660 589.5,-660"/>
<text text-anchor="start" x="600" y="-666.8" font-family="Times,serif" font-size="14.00">needs_validation</text>
<polygon fill="none" stroke="black" points="565.5,-639 565.5,-660 589.5,-660 589.5,-639 565.5,-639"/>
<text text-anchor="start" x="575.5" y="-645.8" font-family="Times,serif" font-size="14.00"> </text>
<polygon fill="none" stroke="black" points="589.5,-639 589.5,-660 702.5,-660 702.5,-639 589.5,-639"/>
<text text-anchor="start" x="592.5" y="-645.8" font-family="Times,serif" font-size="14.00">nonvalidated_grade</text>
<polygon fill="none" stroke="black" points="565.5,-618 565.5,-639 589.5,-639 589.5,-618 565.5,-618"/>
<text text-anchor="start" x="575.5" y="-624.8" font-family="Times,serif" font-size="14.00"> </text>
<polygon fill="none" stroke="black" points="589.5,-618 589.5,-639 702.5,-639 702.5,-618 589.5,-618"/>
<text text-anchor="start" x="597.5" y="-624.8" font-family="Times,serif" font-size="14.00">subtask_identifier</text>
<polygon fill="none" stroke="black" points="565.5,-597 565.5,-618 589.5,-618 589.5,-597 565.5,-597"/>
<text text-anchor="start" x="575.5" y="-603.8" font-family="Times,serif" font-size="14.00"> </text>
<polygon fill="none" stroke="black" points="589.5,-597 589.5,-618 702.5,-618 702.5,-597 589.5,-597"/>
<text text-anchor="start" x="631" y="-603.8" font-family="Times,serif" font-size="14.00">value</text>
<polygon fill="none" stroke="black" points="565.5,-576 565.5,-597 589.5,-597 589.5,-576 565.5,-576"/>
<text text-anchor="start" x="575.5" y="-582.8" font-family="Times,serif" font-size="14.00"> </text>
<polygon fill="none" stroke="black" points="589.5,-576 589.5,-597 702.5,-597 702.5,-576 589.5,-576"/>
<text text-anchor="start" x="634.5" y="-582.8" font-family="Times,serif" font-size="14.00">date</text>
</g>
<!-- submission&#45;&gt;session -->
<g id="edge10" class="edge">
<title>submission:w&#45;&gt;session:e</title>
<path fill="none" stroke="black" d="M564.5,-734C489.09,-734 580.77,-615.98 521,-570 476.62,-535.85 446.61,-548.27 395,-570 373.54,-579.03 377.28,-604.59 361.97,-611.98"/>
<polygon fill="black" stroke="black" points="361.1,-608.58 352,-614 362.5,-615.44 361.1,-608.58"/>
</g>
<!-- task -->
<g id="node9" class="node">
<title>task</title>
<polygon fill="none" stroke="black" points="416,-950 416,-971 500,-971 500,-950 416,-950"/>
<text text-anchor="start" x="445.5" y="-957.8" font-family="Times,serif" font-weight="bold" font-size="14.00">task</text>
<polygon fill="none" stroke="black" points="416,-929 416,-950 440,-950 440,-929 416,-929"/>
<text text-anchor="start" x="419" y="-935.8" font-family="Times,serif" font-size="14.00">🔑</text>
<polygon fill="none" stroke="black" points="440,-929 440,-950 500,-950 500,-929 440,-929"/>
<text text-anchor="start" x="464.5" y="-935.8" font-family="Times,serif" font-size="14.00">id</text>
<polygon fill="none" stroke="black" points="416,-908 416,-929 440,-929 440,-908 416,-908"/>
<text text-anchor="start" x="426" y="-914.8" font-family="Times,serif" font-size="14.00"> </text>
<polygon fill="none" stroke="black" points="440,-908 440,-929 500,-929 500,-908 440,-908"/>
<text text-anchor="start" x="443" y="-914.8" font-family="Times,serif" font-size="14.00">taskgroup</text>
<polygon fill="none" stroke="black" points="416,-887 416,-908 440,-908 440,-887 416,-887"/>
<text text-anchor="start" x="426" y="-893.8" font-family="Times,serif" font-size="14.00"> </text>
<polygon fill="none" stroke="black" points="440,-887 440,-908 500,-908 500,-887 440,-887"/>
<text text-anchor="start" x="448" y="-893.8" font-family="Times,serif" font-size="14.00">location</text>
<polygon fill="none" stroke="black" points="416,-866 416,-887 440,-887 440,-866 416,-866"/>
<text text-anchor="start" x="426" y="-872.8" font-family="Times,serif" font-size="14.00"> </text>
<polygon fill="none" stroke="black" points="440,-866 440,-887 500,-887 500,-866 440,-866"/>
<text text-anchor="start" x="457.5" y="-872.8" font-family="Times,serif" font-size="14.00">stars</text>
<polygon fill="none" stroke="black" points="416,-845 416,-866 440,-866 440,-845 416,-845"/>
<text text-anchor="start" x="426" y="-851.8" font-family="Times,serif" font-size="14.00"> </text>
<polygon fill="none" stroke="black" points="440,-845 440,-866 500,-866 500,-845 440,-845"/>
<text text-anchor="start" x="445.5" y="-851.8" font-family="Times,serif" font-size="14.00">language</text>
</g>
<!-- submission&#45;&gt;task -->
<g id="edge9" class="edge">
<title>submission:w&#45;&gt;task:e</title>
<path fill="none" stroke="black" d="M564.5,-755C481.3,-755 578.81,-924.44 511.14,-939"/>
<polygon fill="black" stroke="black" points="510.61,-935.54 501,-940 511.29,-942.51 510.61,-935.54"/>
</g>
<!-- task&#45;&gt;taskgroup -->
<g id="edge4" class="edge">
<title>task:w&#45;&gt;taskgroup:e</title>
<path fill="none" stroke="black" d="M415,-919C380.62,-919 372.54,-898.64 343.3,-894.67"/>
<polygon fill="black" stroke="black" points="343.21,-891.16 333,-894 342.75,-898.14 343.21,-891.16"/>
</g>
<!-- taskgroup&#45;&gt;contest -->
<g id="edge3" class="edge">
<title>taskgroup:w&#45;&gt;contest:e</title>
<path fill="none" stroke="black" d="M205,-873C142.28,-873 196.11,-754.64 146.59,-741.23"/>
<polygon fill="black" stroke="black" points="146.85,-737.74 136.5,-740 146,-744.69 146.85,-737.74"/>
</g>
<!-- usergroup_admin -->
<g id="node12" class="node">
<title>usergroup_admin</title>
<polygon fill="none" stroke="black" points="403,-287 403,-308 513,-308 513,-287 403,-287"/>
<text text-anchor="start" x="406" y="-294.8" font-family="Times,serif" font-weight="bold" font-size="14.00">usergroup_admin</text>
<polygon fill="none" stroke="black" points="403,-266 403,-287 439,-287 439,-266 403,-266"/>
<text text-anchor="start" x="412" y="-272.8" font-family="Times,serif" font-size="14.00">🔑</text>
<polygon fill="none" stroke="black" points="439,-266 439,-287 513,-287 513,-266 439,-266"/>
<text text-anchor="start" x="456" y="-272.8" font-family="Times,serif" font-size="14.00">session</text>
<polygon fill="none" stroke="black" points="403,-245 403,-266 439,-266 439,-245 403,-245"/>
<text text-anchor="start" x="412" y="-251.8" font-family="Times,serif" font-size="14.00">🔑</text>
<polygon fill="none" stroke="black" points="439,-245 439,-266 513,-266 513,-245 439,-245"/>
<text text-anchor="start" x="448.5" y="-251.8" font-family="Times,serif" font-size="14.00">usergroup</text>
</g>
<!-- usergroup_admin&#45;&gt;session -->
<g id="edge1" class="edge">
<title>usergroup_admin:w&#45;&gt;session:e</title>
<path fill="none" stroke="black" d="M402,-276C329.78,-276 418.41,-581.8 361.89,-611.66"/>
<polygon fill="black" stroke="black" points="360.93,-608.29 352,-614 362.54,-615.11 360.93,-608.29"/>
</g>
<!-- usergroup_admin&#45;&gt;usergroup -->
<g id="edge2" class="edge">
<title>usergroup_admin:w&#45;&gt;usergroup:e</title>
<path fill="none" stroke="black" d="M402,-255C306.29,-255 433.12,-104.54 359,-44 297.04,6.61 252.55,-12.53 179,-44 151.57,-55.74 157.99,-89.62 136.62,-97.39"/>
<polygon fill="black" stroke="black" points="135.83,-93.98 126.5,-99 136.92,-100.89 135.83,-93.98"/>
</g>
</g>
</svg>
